<svg version="1.1" viewBox="0.0 0.0 512.0 512.0" fill="none" stroke="none" stroke-linecap="square" stroke-miterlimit="10" xmlns:xlink="http://www.w3.org/1999/xlink" xmlns="http://www.w3.org/2000/svg"><clipPath id="p.0"><path d="m0 0l512.0 0l0 512.0l-512.0 0l0 -512.0z" clip-rule="nonzero"/></clipPath><g clip-path="url(#p.0)"><path fill="#000000" fill-opacity="0.0" d="m0 0l512.0 0l0 512.0l-512.0 0z" fill-rule="evenodd"/><path fill="#383c56" d="m0 85.33504l0 0c0 -47.12924 38.2058 -85.33504 85.33504 -85.33504l341.3299 0l0 0c22.632263 0 44.337585 8.99063 60.341003 24.994055c16.003418 16.003424 24.99405 37.708725 24.99405 60.34098l0 341.3299c0 47.129242 -38.20581 85.33505 -85.33505 85.33505l-341.3299 0c-47.12924 0 -85.33504 -38.20581 -85.33504 -85.33505z" fill-rule="evenodd"/><defs><linearGradient id="p.1" gradientUnits="userSpaceOnUse" gradientTransform="matrix(20.868962663960644 0.0 0.0 20.868962663960644 0.0 0.0)" spreadMethod="pad" x1="1.8326164600645831" y1="22.701579124025233" x2="22.701579124025233" y2="22.701579124025233"><stop offset="0.0" stop-color="#d3ceea"/><stop offset="1.0" stop-color="#533f90"/></linearGradient></defs><path fill="url(#p.1)" d="m38.244804 256.00162l0 0c0 -120.26378 97.493034 -217.7568 217.7568 -217.7568l0 0c57.752686 0 113.139984 22.94217 153.9773 63.779488c40.83731 40.837326 63.77948 96.224625 63.77948 153.97733l0 0c0 120.26373 -97.49304 217.75677 -217.75677 217.75677l0 0c-120.26378 0 -217.7568 -97.49304 -217.7568 -217.75677z" fill-rule="evenodd"/><path fill="#8d76c6" d="m168.1273 256.00162l0 0c0 -84.397705 68.41785 -152.81555 152.81557 -152.81555l0 0c40.529175 0 79.39841 16.100159 108.056885 44.75863c28.658478 28.658478 44.758636 67.52771 44.758636 108.05693l0 0c0 84.397675 -68.41785 152.81555 -152.81552 152.81555l0 0c-84.39772 0 -152.81557 -68.41788 -152.81557 -152.81555z" fill-rule="evenodd"/><path fill="#383c56" d="m168.1273 256.00162l0 0c0 -48.531647 39.342667 -87.87431 87.87431 -87.87431l0 0c23.305695 0 45.65686 9.258163 62.136505 25.737793c16.479614 16.47963 25.737793 38.830795 25.737793 62.13652l0 0c0 48.531616 -39.34268 87.8743 -87.8743 87.8743l0 0c-48.531647 0 -87.87431 -39.34268 -87.87431 -87.8743z" fill-rule="evenodd"/></g></svg>